<mxfile host="app.diagrams.net" modified="2024-05-22T06:30:17.438Z" agent="Mozilla/5.0 (Windows NT 10.0; Win64; x64) AppleWebKit/537.36 (KHTML, like Gecko) Chrome/124.0.0.0 Safari/537.36" version="24.4.4" etag="cpsvWoS0vlOt0vtNmwCx" type="github">
  <diagram name="Page-1" id="cmm4CG6WD8H9nOfJ1Ax9">
    <mxGraphModel>
      <root>
        <mxCell id="0" />
        <mxCell id="1" parent="0" />
      </root>
    </mxGraphModel>
  </diagram>
</mxfile>
